<svg width="204" height="50" viewBox="0 0 204 50" fill="none" xmlns="http://www.w3.org/2000/svg">
<path d="M36.4776 11.4198C38.9329 13.7487 40.579 16.8069 41.2404 20.263C41.9294 23.8645 41.5124 27.7873 40.035 31.6051C40.035 31.6061 40.0341 31.608 40.0341 31.6089C40.0095 31.6731 39.9829 31.7383 39.9593 31.7988C39.9583 31.8007 39.9583 31.8016 39.9573 31.8026C39.8863 31.9831 39.8076 32.1767 39.7166 32.3912C39.3177 33.3265 38.8552 34.2561 38.3425 35.1565C37.9323 35.8784 37.4783 36.6031 36.9931 37.3078C36.4918 38.0381 35.9431 38.7685 35.3641 39.477C35.1338 39.7586 34.9168 40.0156 34.6998 40.265C34.0535 41.0114 33.357 41.7531 32.6292 42.4673C32.6226 42.473 32.616 42.4786 32.6103 42.4853C32.5894 42.506 32.5667 42.5277 32.5459 42.5485C32.5193 42.574 32.4937 42.5996 32.4672 42.625L32.4539 42.6373C32.3952 42.695 32.3355 42.7526 32.2748 42.8093C32.2691 42.815 32.2625 42.8207 32.2549 42.8282C32.2483 42.8348 32.2407 42.8433 32.2331 42.8508C32.2303 42.8546 32.2255 42.8585 32.2227 42.8622L32.2141 42.8707L32.2085 42.8754L32.2075 42.8773C32.2037 42.8811 32.2 42.8839 32.1961 42.8877C32.1942 42.8896 32.1923 42.8915 32.1905 42.8934C32.1848 42.8981 32.1801 42.9038 32.1753 42.9095C32.1743 42.9104 32.1734 42.9113 32.1724 42.9123C32.1715 42.9132 32.1706 42.9142 32.1696 42.9151C32.0872 42.9926 31.999 43.0748 31.8815 43.1806C31.8777 43.1844 31.873 43.1891 31.8683 43.1929C31.8607 43.1985 31.8541 43.2042 31.8474 43.2099C31.6967 43.3431 31.5442 43.4763 31.3897 43.6086C31.5593 43.3828 31.7233 43.1542 31.8825 42.9227C31.9119 42.8792 31.9413 42.8358 31.9716 42.7923C32.0019 42.7479 32.0341 42.7026 32.0644 42.6581C33.8726 40.0269 34.9434 37.0565 35.1604 34.0681C35.3698 31.1904 34.7927 28.3976 33.4897 25.9941C32.3136 23.8248 30.5643 22.0364 28.4321 20.8242C26.1294 19.5147 23.4541 18.8817 20.4795 18.9393C20.4719 18.9393 20.4643 18.9393 20.4568 18.9393L20.3999 18.9403C20.3611 18.9412 20.3231 18.9422 20.2852 18.9441C20.2549 18.9441 20.2246 18.9478 20.1952 18.9554C20.1924 18.9564 20.1905 18.9564 20.1876 18.9573C20.1582 18.963 20.1298 18.9686 20.0995 18.9771C19.965 18.9838 19.8389 18.9904 19.7148 18.9979C19.7119 18.9979 19.7082 18.9979 19.7053 18.9988C19.6541 19.0017 19.602 19.0055 19.5508 19.0092H19.5423C19.5328 19.0102 19.5224 19.0111 19.5129 19.0121C18.3321 19.1009 17.104 19.305 15.8597 19.6196C15.8569 19.6205 15.8531 19.6215 15.8502 19.6224C15.7878 19.6394 15.6835 19.647 15.583 19.6555C15.4494 19.6659 15.2987 19.6773 15.1509 19.715C15.148 19.716 15.1452 19.7169 15.1414 19.7178C13.6356 20.1288 12.1961 20.1515 10.9784 19.7831C9.89339 19.4552 8.996 18.8288 8.38375 17.9719C7.8389 17.2076 7.55081 16.3043 7.55176 15.3586C7.55176 14.3657 7.8768 13.3699 8.48899 12.4789C9.04145 11.6749 9.81283 10.9692 10.7813 10.3787C11.1594 10.1992 11.529 10.0177 11.8873 9.84202L12.0189 9.77686C12.0256 9.774 12.0313 9.77019 12.0379 9.76741L12.1497 9.71257C12.1762 9.70599 12.2028 9.69749 12.2284 9.6871C12.2975 9.65781 12.3819 9.61337 12.5126 9.534L12.5477 9.51702C12.5818 9.50099 12.615 9.48392 12.6492 9.46789C12.6624 9.46313 12.6766 9.45749 12.6898 9.45186C15.1718 8.354 17.6375 7.58777 20.0199 7.17395C22.2706 6.78376 24.4615 6.70534 26.5302 6.9406C30.4174 7.3837 33.8564 8.93218 36.4776 11.4198Z" fill="#00A2FD"/>
<path d="M31.6721 32.6604C32.0777 36.2506 31.2665 39.9428 29.103 43.0917C26.1256 47.4255 21.2632 49.7478 16.2085 49.7856C15.0817 49.7629 13.9522 49.658 12.8301 49.47C12.8292 49.47 12.8273 49.47 12.8254 49.469C8.71638 48.7794 4.71262 46.9757 1.29069 44.0299C0.841507 43.6435 0.412225 43.2457 0 42.8338C1.15612 43.4517 2.3511 43.9648 3.56977 44.3729C9.91706 46.5033 16.9173 45.8127 22.6733 42.4342C24.7856 41.1946 26.7311 39.5914 28.4151 37.6337C29.7417 36.09 30.8268 34.4158 31.6721 32.6604Z" fill="#00A2FD"/>
<path d="M38.7198 9.02476C38.8259 9.175 38.9291 9.32714 39.0296 9.48111C39.0808 9.55857 39.131 9.63413 39.1803 9.71071C40.5108 11.7722 41.4907 14.0737 42.0715 16.5292L42.0725 16.532C42.9946 20.7892 42.6202 24.7384 41.5863 28.2303C42.2544 25.2911 42.3123 22.351 41.7436 19.5817C41.0007 15.9661 39.2239 12.7538 36.6055 10.2917C33.81 7.66051 30.1644 5.99958 26.0668 5.48656C23.8834 5.21352 21.5759 5.26548 19.2096 5.64245C17.5465 5.90794 15.8465 6.33498 14.1302 6.9179C14.0981 5.82102 12.6017 5.09164 10.6354 5.8059C6.4686 7.29676 4.68797 4.65798 8.33833 2.62198C8.54013 2.53317 8.74201 2.44719 8.94476 2.36405V2.3631C9.25658 2.27713 9.5996 2.14108 9.87821 1.99464C9.87821 1.9937 9.87821 1.9937 9.88012 1.99464C9.88578 1.99275 9.89055 1.99086 9.89525 1.98991C9.98528 1.95685 10.0763 1.92567 10.1653 1.89355C15.113 0.151367 19.6977 -0.319135 23.7716 0.198606C23.9213 0.218447 24.0701 0.237344 24.2189 0.260018C24.2966 0.271355 24.3734 0.282692 24.4511 0.294975C30.6069 1.25582 35.5423 4.50209 38.7198 9.02476Z" fill="#00669F"/>
<path d="M20.3741 19.8388C20.3238 19.8368 20.2746 19.8407 20.2243 19.8491C20.015 19.8831 19.8197 19.9994 19.6899 20.1874C19.5553 20.3839 19.5193 20.6182 19.5714 20.8317C19.5724 20.8336 19.5724 20.8365 19.5733 20.8384C19.598 20.9186 19.6311 20.9961 19.6719 21.0688C19.8406 21.3722 20.1429 21.5857 20.558 21.5592C20.5607 21.5583 20.5627 21.5583 20.5655 21.5573C21.5255 21.4695 22.3509 21.8946 22.4276 22.5276C22.4807 22.8583 22.2902 23.1852 21.9709 23.4412C21.7406 23.6254 21.8439 23.9911 22.1386 24.0194C27.5894 24.5645 30.9175 27.7484 32.0396 31.8564C33.1369 35.8745 32.1229 40.777 28.918 44.9558C28.2301 45.8543 27.4406 46.7197 26.5489 47.5351C27.398 46.9833 28.2054 46.3522 28.9578 45.6408C28.9607 45.6389 28.9636 45.6361 28.9654 45.6342C29.7937 44.851 30.5546 43.9723 31.2331 43.0011C31.2597 42.9642 31.2852 42.9265 31.3108 42.8886C31.3317 42.8575 31.3535 42.8272 31.3734 42.7961C31.3734 42.7961 31.3734 42.7951 31.3743 42.7951C31.4388 42.7025 31.5022 42.6099 31.5658 42.5173C34.7906 37.9087 35.435 32.633 33.9566 28.2899C32.9702 25.9099 31.3023 23.7803 29.0128 22.2168C26.3755 20.4169 23.3345 19.6545 20.3741 19.8388ZM33.4582 27.3488C33.4601 27.3517 33.462 27.3554 33.4629 27.3602C33.462 27.3564 33.4601 27.3526 33.4582 27.3488Z" fill="#00669F"/>
<path d="M68.34 28.02C68.34 29.36 67.4 30.14 65.86 30.14H62.78V25.8H65.78C67.3 25.8 68.34 26.64 68.34 28.02ZM67.98 21.96C67.98 23.24 67.08 23.94 65.6 23.94H62.78V19.96H65.6C67.08 19.96 67.98 20.7 67.98 21.96ZM70.62 28.26C70.62 26.6 69.42 25.12 67.94 24.86C69.28 24.38 70.3 23.36 70.3 21.68C70.3 19.72 68.74 18.1 65.8 18.1H60.5V32H66.06C68.9 32 70.62 30.38 70.62 28.26ZM73.0977 32H75.3777V20.98H73.0977V32ZM74.2577 19.52C75.0577 19.52 75.6977 18.88 75.6977 18.06C75.6977 17.24 75.0577 16.6 74.2577 16.6C73.4377 16.6 72.7977 17.24 72.7977 18.06C72.7977 18.88 73.4377 19.52 74.2577 19.52ZM78.3711 32H80.6511V22.48L84.9111 32H86.4911L90.7311 22.48V32H93.0111V18.1H90.5711L85.7111 29L80.8311 18.1H78.3711V32ZM95.2478 26.44C95.2478 29.84 97.5478 32.18 100.408 32.18C102.248 32.18 103.568 31.3 104.268 30.36V32H106.568V20.98H104.268V22.58C103.588 21.68 102.308 20.8 100.448 20.8C97.5478 20.8 95.2478 23.04 95.2478 26.44ZM104.268 26.48C104.268 28.86 102.648 30.2 100.928 30.2C99.2278 30.2 97.5878 28.82 97.5878 26.44C97.5878 24.06 99.2278 22.78 100.928 22.78C102.648 22.78 104.268 24.12 104.268 26.48ZM111.843 26.2C111.843 23.86 112.883 23.16 114.563 23.16H115.143V20.8C113.583 20.8 112.483 21.48 111.843 22.58V20.98H109.563V32H111.843V26.2ZM117.238 32H119.518V27.26L123.598 32H126.678L121.598 26.5L126.678 20.98H123.518L119.518 25.8V17.2H117.238V32ZM132.953 22.72C134.653 22.72 135.993 23.8 136.033 25.5H129.933C130.173 23.76 131.413 22.72 132.953 22.72ZM138.112 28.72H135.653C135.233 29.58 134.453 30.26 133.053 30.26C131.373 30.26 130.073 29.16 129.913 27.34H138.333C138.393 26.96 138.413 26.6 138.413 26.22C138.413 22.98 136.193 20.8 133.053 20.8C129.793 20.8 127.553 23.02 127.553 26.48C127.553 29.94 129.893 32.18 133.053 32.18C135.753 32.18 137.493 30.64 138.112 28.72ZM141.016 28.94C141.016 31.18 142.236 32 144.196 32H145.996V30.1H144.596C143.636 30.1 143.316 29.76 143.316 28.94V22.84H145.996V20.98H143.316V18.24H141.016V20.98H139.716V22.84H141.016V28.94ZM150.378 22.6V20.98H148.098V37.24H150.378V30.4C151.098 31.26 152.398 32.18 154.218 32.18C157.118 32.18 159.398 29.84 159.398 26.44C159.398 23.04 157.118 20.8 154.218 20.8C152.418 20.8 151.078 21.68 150.378 22.6ZM157.078 26.44C157.078 28.82 155.438 30.2 153.718 30.2C152.018 30.2 150.378 28.86 150.378 26.48C150.378 24.12 152.018 22.78 153.718 22.78C155.438 22.78 157.078 24.06 157.078 26.44ZM161.652 32H163.932V17.2H161.652V32ZM166.166 26.44C166.166 29.84 168.466 32.18 171.326 32.18C173.166 32.18 174.486 31.3 175.186 30.36V32H177.486V20.98H175.186V22.58C174.506 21.68 173.226 20.8 171.366 20.8C168.466 20.8 166.166 23.04 166.166 26.44ZM175.186 26.48C175.186 28.86 173.566 30.2 171.846 30.2C170.146 30.2 168.506 28.82 168.506 26.44C168.506 24.06 170.146 22.78 171.846 22.78C173.566 22.78 175.186 24.12 175.186 26.48ZM179.72 26.48C179.72 29.94 181.96 32.18 185.12 32.18C187.82 32.18 189.58 30.68 190.2 28.52H187.74C187.32 29.66 186.48 30.26 185.12 30.26C183.28 30.26 182.06 28.9 182.06 26.48C182.06 24.08 183.28 22.72 185.12 22.72C186.48 22.72 187.36 23.4 187.74 24.46H190.2C189.58 22.14 187.82 20.8 185.12 20.8C181.96 20.8 179.72 23.04 179.72 26.48ZM197.113 22.72C198.813 22.72 200.153 23.8 200.193 25.5H194.093C194.333 23.76 195.573 22.72 197.113 22.72ZM202.273 28.72H199.813C199.393 29.58 198.613 30.26 197.213 30.26C195.533 30.26 194.233 29.16 194.073 27.34H202.493C202.553 26.96 202.573 26.6 202.573 26.22C202.573 22.98 200.353 20.8 197.213 20.8C193.953 20.8 191.713 23.02 191.713 26.48C191.713 29.94 194.053 32.18 197.213 32.18C199.913 32.18 201.653 30.64 202.273 28.72Z" fill="white"/>
</svg>
