<svg width="20" height="21" viewBox="0 0 20 21" fill="none" xmlns="http://www.w3.org/2000/svg">
<path opacity="0.4" d="M13.8963 2.16666H6.11107C3.27403 2.16666 1.66663 3.77406 1.66663 6.6111V14.3889C1.66663 17.2259 3.27403 18.8333 6.11107 18.8333H13.8963C16.7333 18.8333 18.3333 17.2259 18.3333 14.3889V6.6111C18.3333 3.77406 16.7333 2.16666 13.8963 2.16666Z" fill="white"/>
<path d="M6.14055 8.30746C5.76277 8.30746 5.45166 8.61858 5.45166 9.00376V14.7297C5.45166 15.1075 5.76277 15.4186 6.14055 15.4186C6.52573 15.4186 6.83685 15.1075 6.83685 14.7297V9.00376C6.83685 8.61858 6.52573 8.30746 6.14055 8.30746Z" fill="white"/>
<path d="M10.0295 5.57413C9.65169 5.57413 9.34058 5.88524 9.34058 6.27042V14.7297C9.34058 15.1075 9.65169 15.4186 10.0295 15.4186C10.4147 15.4186 10.7258 15.1075 10.7258 14.7297V6.27042C10.7258 5.88524 10.4147 5.57413 10.0295 5.57413Z" fill="white"/>
<path d="M13.8666 11.3297C13.4814 11.3297 13.1703 11.6408 13.1703 12.026V14.7297C13.1703 15.1075 13.4814 15.4186 13.8592 15.4186C14.2444 15.4186 14.5555 15.1075 14.5555 14.7297V12.026C14.5555 11.6408 14.2444 11.3297 13.8666 11.3297Z" fill="white"/>
</svg>
