<svg width="20" height="21" viewBox="0 0 20 21" fill="none" xmlns="http://www.w3.org/2000/svg">
<path opacity="0.4" d="M9.99922 18.8318C9.35839 18.8318 8.71839 18.5885 8.22922 18.1027L7.62089 17.4943C7.38506 17.2593 7.06922 17.1293 6.73422 17.1285H5.87839C4.49505 17.1285 3.36922 16.0027 3.36922 14.6193V13.7627C3.36839 13.4285 3.23839 13.1127 3.00255 12.8752L2.40422 12.2777C1.42422 11.3035 1.42005 9.711 2.39505 8.73017L3.00339 8.121C3.23839 7.88517 3.36839 7.56933 3.36922 7.23433V6.37933C3.36922 4.99517 4.49505 3.86933 5.87839 3.86933H6.73505C7.06922 3.86933 7.38422 3.73933 7.62172 3.50183L8.22089 2.90433C9.19506 1.92433 10.7867 1.91933 11.7684 2.89517L12.3767 3.5035C12.6134 3.73933 12.9284 3.86933 13.2626 3.86933H14.1192C15.5026 3.86933 16.6284 4.99517 16.6284 6.37933V7.23517C16.6292 7.56933 16.7592 7.88517 16.9951 8.12267L17.5934 8.721C18.0676 9.19267 18.3301 9.821 18.3326 10.4918C18.3342 11.1585 18.0776 11.786 17.6101 12.2602C17.6017 12.2685 17.5942 12.2777 17.5859 12.2852L16.9942 12.8768C16.7592 13.1127 16.6292 13.4285 16.6284 13.7635V14.6193C16.6284 16.0027 15.5026 17.1285 14.1192 17.1285H13.2626C12.9284 17.1293 12.6126 17.2593 12.3759 17.4952L11.7767 18.0935C11.2884 18.5852 10.6434 18.8318 9.99922 18.8318Z" fill="white"/>
<path fill-rule="evenodd" clip-rule="evenodd" d="M8.36896 8.87575C8.23146 9.01325 8.05313 9.08742 7.85563 9.08742C7.67063 9.08742 7.48896 9.01158 7.34313 8.87492C7.2048 8.73742 7.12646 8.54908 7.12646 8.35825C7.12646 8.17658 7.20313 7.98992 7.33813 7.84575C7.4123 7.77075 7.50063 7.71408 7.58896 7.68408C7.84063 7.56908 8.1748 7.63658 8.37313 7.84492C8.44396 7.91575 8.49813 7.99325 8.53396 8.07408C8.57313 8.16075 8.59313 8.25908 8.59313 8.35825C8.59313 8.55658 8.51397 8.74075 8.36896 8.87575ZM12.6587 7.8415C12.3745 7.55817 11.912 7.55817 11.6279 7.8415L7.34455 12.1248C7.06038 12.409 7.06038 12.8715 7.34455 13.1565C7.48288 13.294 7.66538 13.3698 7.86038 13.3698C8.05538 13.3698 8.23788 13.294 8.37538 13.1565L12.6587 8.87317C12.9429 8.58817 12.9429 8.1265 12.6587 7.8415ZM12.4215 11.9699C12.1515 11.8566 11.8315 11.9183 11.6181 12.1316C11.574 12.1833 11.5115 12.2633 11.469 12.3574C11.424 12.4591 11.4181 12.5683 11.4181 12.6416C11.4181 12.7149 11.424 12.8232 11.469 12.9249C11.5106 13.0182 11.5606 13.0941 11.6265 13.1599C11.7773 13.2999 11.9523 13.3707 12.1473 13.3707C12.3323 13.3707 12.514 13.2957 12.6631 13.1566C12.7956 13.0241 12.8681 12.8408 12.8681 12.6416C12.8681 12.4416 12.7956 12.2591 12.6623 12.1258C12.589 12.0533 12.5006 11.9966 12.4215 11.9699Z" fill="white"/>
</svg>
