<svg width="20" height="21" viewBox="0 0 20 21" fill="none" xmlns="http://www.w3.org/2000/svg">
<path opacity="0.4" d="M18.3334 10.4998C18.3334 15.1032 14.6026 18.8332 10.0001 18.8332C5.39758 18.8332 1.66675 15.1032 1.66675 10.4998C1.66675 5.89817 5.39758 2.1665 10.0001 2.1665C14.6026 2.1665 18.3334 5.89817 18.3334 10.4998Z" fill="white"/>
<path fill-rule="evenodd" clip-rule="evenodd" d="M6.26762 9.50292C5.71679 9.50292 5.26929 9.95042 5.26929 10.4996C5.26929 11.0496 5.71679 11.4979 6.26762 11.4979C6.81845 11.4979 7.26595 11.0496 7.26595 10.4996C7.26595 9.95042 6.81845 9.50292 6.26762 9.50292ZM10.0002 9.50292C9.44937 9.50292 9.00187 9.95042 9.00187 10.4996C9.00187 11.0496 9.44937 11.4979 10.0002 11.4979C10.551 11.4979 10.9985 11.0496 10.9985 10.4996C10.9985 9.95042 10.551 9.50292 10.0002 9.50292ZM12.7347 10.4996C12.7347 9.95042 13.1822 9.50292 13.733 9.50292C14.2839 9.50292 14.7314 9.95042 14.7314 10.4996C14.7314 11.0496 14.2839 11.4979 13.733 11.4979C13.1822 11.4979 12.7347 11.0496 12.7347 10.4996Z" fill="white"/>
</svg>
