<svg width="20" height="21" viewBox="0 0 20 21" fill="none" xmlns="http://www.w3.org/2000/svg">
<path opacity="0.4" d="M15.674 8.01749C15.2977 8.01749 14.7993 8.00916 14.1788 8.00916C12.6655 8.00916 11.4212 6.75666 11.4212 5.22916V2.54916C11.4212 2.33832 11.2529 2.16666 11.0442 2.16666H6.63632C4.57926 2.16666 2.91663 3.85499 2.91663 5.92416V14.9033C2.91663 17.0742 4.65848 18.8333 6.80794 18.8333H13.3719C15.4215 18.8333 17.0833 17.1558 17.0833 15.085V8.39249C17.0833 8.18082 16.9158 8.00999 16.7062 8.01082C16.3539 8.01332 15.9314 8.01749 15.674 8.01749Z" fill="white"/>
<path opacity="0.4" d="M13.4033 2.63941C13.1541 2.38025 12.7191 2.55858 12.7191 2.91775V5.11525C12.7191 6.03691 13.4783 6.79525 14.3999 6.79525C14.9808 6.80191 15.7874 6.80358 16.4724 6.80191C16.8233 6.80108 17.0016 6.38191 16.7583 6.12858C15.8791 5.21441 14.3049 3.57608 13.4033 2.63941Z" fill="white"/>
<path fill-rule="evenodd" clip-rule="evenodd" d="M7.47815 9.98964H10.299C10.6415 9.98964 10.9198 9.71214 10.9198 9.36964C10.9198 9.02714 10.6415 8.74881 10.299 8.74881H7.47815C7.13565 8.74881 6.85815 9.02714 6.85815 9.36964C6.85815 9.71214 7.13565 9.98964 7.47815 9.98964ZM7.47824 14.1515H12.0149C12.3574 14.1515 12.6357 13.874 12.6357 13.5315C12.6357 13.189 12.3574 12.9106 12.0149 12.9106H7.47824C7.13574 12.9106 6.85824 13.189 6.85824 13.5315C6.85824 13.874 7.13574 14.1515 7.47824 14.1515Z" fill="white"/>
</svg>
